{
    "accessors" : [
        {
            "bufferView" : 0, 
            "componentType" : 5123, 
            "count" : 1248, 
            "max" : [
                819
            ], 
            "min" : [
                0
            ], 
            "type" : "SCALAR"
        }, 
        {
            "bufferView" : 1, 
            "componentType" : 5126, 
            "count" : 820, 
            "max" : [
                2.1227123737335205, 
                0.6642880439758301, 
                0.6814605593681335
            ], 
            "min" : [
                -1.9058656692504883, 
                -0.28944525122642517, 
                -0.6814605593681335
            ], 
            "type" : "VEC3"
        }, 
        {
            "bufferView" : 2, 
            "componentType" : 5126, 
            "count" : 820, 
            "max" : [
                0.9999962449073792, 
                0.9999822974205017, 
                1.0
            ], 
            "min" : [
                -0.9999831318855286, 
                -0.999998152256012, 
                -1.0
            ], 
            "type" : "VEC3"
        }
    ], 
    "asset" : {
        "generator" : "Khronos Blender glTF 2.0 exporter", 
        "version" : "2.0"
    }, 
    "bufferViews" : [
        {
            "buffer" : 0, 
            "byteLength" : 2496, 
            "byteOffset" : 0, 
            "target" : 34963
        }, 
        {
            "buffer" : 0, 
            "byteLength" : 9840, 
            "byteOffset" : 2496, 
            "target" : 34962
        }, 
        {
            "buffer" : 0, 
            "byteLength" : 9840, 
            "byteOffset" : 12336, 
            "target" : 34962
        }
    ], 
    "buffers" : [
        {
            "byteLength" : 22176, 
            "uri" : "boat.bin"
        }
    ], 
    "meshes" : [
        {
            "name" : "Cube.001", 
            "primitives" : [
                {
                    "attributes" : {
                        "NORMAL" : 2, 
                        "POSITION" : 1
                    }, 
                    "indices" : 0
                }
            ]
        }
    ], 
    "nodes" : [
        {
            "mesh" : 0, 
            "name" : "boat"
        }
    ], 
    "scene" : 0, 
    "scenes" : [
        {
            "name" : "Scene", 
            "nodes" : [
                0
            ]
        }
    ]
}
