{
    "accessors" : [
        {
            "bufferView" : 0, 
            "componentType" : 5123, 
            "count" : 624, 
            "max" : [
                415
            ], 
            "min" : [
                0
            ], 
            "type" : "SCALAR"
        }, 
        {
            "bufferView" : 1, 
            "componentType" : 5126, 
            "count" : 416, 
            "max" : [
                1.0118677616119385, 
                1.8693337440490723, 
                1.227858304977417
            ], 
            "min" : [
                -0.9084999561309814, 
                -0.8145107626914978, 
                -0.0
            ], 
            "type" : "VEC3"
        }, 
        {
            "bufferView" : 2, 
            "componentType" : 5126, 
            "count" : 416, 
            "max" : [
                0.9999998211860657, 
                0.9998697638511658, 
                0.9999999403953552
            ], 
            "min" : [
                -0.999999463558197, 
                -0.9999753832817078, 
                -0.999542236328125
            ], 
            "type" : "VEC3"
        }
    ], 
    "asset" : {
        "generator" : "Khronos Blender glTF 2.0 exporter", 
        "version" : "2.0"
    }, 
    "bufferViews" : [
        {
            "buffer" : 0, 
            "byteLength" : 1248, 
            "byteOffset" : 0, 
            "target" : 34963
        }, 
        {
            "buffer" : 0, 
            "byteLength" : 4992, 
            "byteOffset" : 1248, 
            "target" : 34962
        }, 
        {
            "buffer" : 0, 
            "byteLength" : 4992, 
            "byteOffset" : 6240, 
            "target" : 34962
        }
    ], 
    "buffers" : [
        {
            "byteLength" : 11232, 
            "uri" : "boat.bin"
        }
    ], 
    "meshes" : [
        {
            "name" : "Cube.001", 
            "primitives" : [
                {
                    "attributes" : {
                        "NORMAL" : 2, 
                        "POSITION" : 1
                    }, 
                    "indices" : 0
                }
            ]
        }
    ], 
    "nodes" : [
        {
            "mesh" : 0, 
            "name" : "boat", 
            "scale" : [
                5.903339862823486, 
                1.0, 
                1.5617908239364624
            ]
        }
    ], 
    "scene" : 0, 
    "scenes" : [
        {
            "name" : "Scene", 
            "nodes" : [
                0
            ]
        }
    ]
}
